<svg width="26" height="11" viewBox="0 0 26 11" fill="none" xmlns="http://www.w3.org/2000/svg">
<path d="M0.0840782 2.44613V0.64013H3.45808V10.8461H1.44208V2.44613H0.0840782ZM6.48634 10.9441C6.13168 10.9441 5.83768 10.8368 5.60434 10.6221C5.38034 10.3981 5.26834 10.1228 5.26834 9.79613C5.26834 9.46946 5.38034 9.1988 5.60434 8.98413C5.83768 8.76013 6.13168 8.64813 6.48634 8.64813C6.83168 8.64813 7.11634 8.76013 7.34034 8.98413C7.56434 9.1988 7.67634 9.46946 7.67634 9.79613C7.67634 10.1228 7.56434 10.3981 7.34034 10.6221C7.11634 10.8368 6.83168 10.9441 6.48634 10.9441ZM14.3231 3.18813C14.2297 2.79613 14.0664 2.50213 13.8331 2.30613C13.6091 2.11013 13.2824 2.01213 12.8531 2.01213C12.2091 2.01213 11.7331 2.27346 11.4251 2.79613C11.1264 3.30946 10.9724 4.14946 10.9631 5.31613C11.1871 4.9428 11.5137 4.65346 11.9431 4.44813C12.3724 4.23346 12.8391 4.12613 13.3431 4.12613C13.9497 4.12613 14.4864 4.2568 14.9531 4.51813C15.4197 4.77946 15.7837 5.16213 16.0451 5.66613C16.3064 6.1608 16.4371 6.75813 16.4371 7.45813C16.4371 8.1208 16.3017 8.71346 16.0311 9.23613C15.7697 9.74946 15.3824 10.1508 14.8691 10.4401C14.3557 10.7295 13.7444 10.8741 13.0351 10.8741C12.0644 10.8741 11.2991 10.6595 10.7391 10.2301C10.1884 9.8008 9.80106 9.20346 9.57706 8.43813C9.3624 7.66346 9.25506 6.71146 9.25506 5.58213C9.25506 3.87413 9.54906 2.58613 10.1371 1.71813C10.7251 0.840797 11.6537 0.40213 12.9231 0.40213C13.9031 0.40213 14.6637 0.66813 15.2051 1.20013C15.7464 1.73213 16.0591 2.3948 16.1431 3.18813H14.3231ZM12.8951 5.73613C12.4004 5.73613 11.9851 5.8808 11.6491 6.17013C11.3131 6.45946 11.1451 6.87946 11.1451 7.43013C11.1451 7.9808 11.2991 8.4148 11.6071 8.73213C11.9244 9.04946 12.3677 9.20813 12.9371 9.20813C13.4411 9.20813 13.8377 9.05413 14.1271 8.74613C14.4257 8.43813 14.5751 8.0228 14.5751 7.50013C14.5751 6.9588 14.4304 6.52946 14.1411 6.21213C13.8611 5.8948 13.4457 5.73613 12.8951 5.73613ZM22.8021 10.8461L20.1701 7.54213V10.8461H18.2101V0.48613H20.1701V6.38013L22.7741 3.09013H25.3221L21.9061 6.98213L25.3501 10.8461H22.8021Z" fill="black"/>
</svg>
