<svg width="13" height="37" viewBox="0 0 13 37" fill="none" xmlns="http://www.w3.org/2000/svg">
<path d="M10.5704 11.4169L9.47008 10.3166C9.02564 9.87212 8.78083 9.28121 8.78083 8.65264V2.9789C9.13556 2.66682 9.36009 2.21001 9.36009 1.70157C9.36009 0.763315 8.59678 0 7.65852 0H5.3415C4.40325 0 3.63993 0.763315 3.63993 1.70157C3.63993 2.21008 3.86447 2.6669 4.21919 2.9789V8.65264C4.21919 9.28121 3.97438 9.87212 3.52995 10.3166L2.42965 11.4169C1.34246 12.5041 0.743652 13.9497 0.743652 15.4873V35.2984C0.743652 36.2367 1.50697 37 2.44522 37H10.5548C11.4931 37 12.2564 36.2367 12.2564 35.2984V15.4873C12.2564 13.9497 11.6576 12.5041 10.5704 11.4169ZM5.3415 1.08611H7.65852C7.9979 1.08611 8.27398 1.36219 8.27398 1.70157C8.27398 2.04094 7.9979 2.31703 7.65852 2.31703H5.3415C5.00213 2.31703 4.72604 2.04094 4.72604 1.70157C4.72604 1.36219 5.00213 1.08611 5.3415 1.08611ZM1.82976 23.6771H3.02447C3.32438 23.6771 3.56753 23.434 3.56753 23.1341C3.56753 22.8341 3.32438 22.591 3.02447 22.591H1.82976V21.3601H4.18299C4.4829 21.3601 4.72604 21.1169 4.72604 20.817C4.72604 20.5171 4.4829 20.274 4.18299 20.274H1.82976V18.4638H5.3415C5.68087 18.4638 5.95696 18.7399 5.95696 19.0793V28.3474C5.95696 28.6867 5.68087 28.9628 5.3415 28.9628H1.82976V23.6771ZM11.1703 35.2984C11.1703 35.6378 10.8942 35.9139 10.5548 35.9139H2.44522C2.10585 35.9139 1.82976 35.6378 1.82976 35.2984V30.0489H5.3415C6.27975 30.0489 7.04307 29.2856 7.04307 28.3474V19.0793C7.04307 18.141 6.27975 17.3777 5.3415 17.3777H1.82976V15.4873C1.82976 14.2398 2.31554 13.067 3.19767 12.1849L4.29797 11.0846C4.94761 10.435 5.30537 9.57134 5.30537 8.65271V3.40219C5.31746 3.40248 5.32941 3.40313 5.34157 3.40313H7.6586C7.67076 3.40313 7.68271 3.40248 7.6948 3.40219V8.65264C7.6948 9.57134 8.05256 10.435 8.7022 11.0846L9.8025 12.1849C10.6845 13.067 11.1703 14.2398 11.1703 15.4873V35.2984Z" fill="black"/>
<path d="M9.39632 14.9442C9.09641 14.9442 8.85327 15.1874 8.85327 15.4873V20.817C8.85327 21.1169 9.09641 21.3601 9.39632 21.3601C9.69623 21.3601 9.93938 21.1169 9.93938 20.817V15.4873C9.93938 15.1874 9.69623 14.9442 9.39632 14.9442Z" fill="black"/>
<path d="M8.16402 13.8233C8.27002 13.9294 8.40905 13.9824 8.54799 13.9824C8.68694 13.9824 8.82597 13.9294 8.93197 13.8233C9.14405 13.6112 9.14405 13.2674 8.93197 13.0553L7.83167 11.9551C7.61966 11.743 7.2758 11.743 7.06372 11.9551C6.85164 12.1671 6.85164 12.5109 7.06372 12.723L8.16402 13.8233Z" fill="black"/>
<path d="M4.76223 33.5969H4.14677V31.8229C4.14677 31.523 3.90363 31.2798 3.60372 31.2798C3.30381 31.2798 3.06067 31.523 3.06067 31.8229V34.1399C3.06067 34.4398 3.30381 34.683 3.60372 34.683H4.76223C5.06214 34.683 5.30529 34.4398 5.30529 34.1399C5.30529 33.84 5.06214 33.5969 4.76223 33.5969Z" fill="black"/>
<path d="M8.23776 33.5969H7.07925C6.77934 33.5969 6.53619 33.84 6.53619 34.1399C6.53619 34.4398 6.77934 34.683 7.07925 34.683H8.23776C8.53767 34.683 8.78081 34.4398 8.78081 34.1399C8.78081 33.84 8.53767 33.5969 8.23776 33.5969Z" fill="black"/>
</svg>
