<?xml version="1.0" encoding="utf-8"?><svg version="1.1" id="Layer_1" xmlns="http://www.w3.org/2000/svg" xmlns:xlink="http://www.w3.org/1999/xlink" x="0px" y="0px" viewBox="0 0 43.06 122.88" style="enable-background:new 0 0 43.06 122.88" xml:space="preserve"><style type="text/css">.st0{fill-rule:evenodd;clip-rule:evenodd;}</style><g><path class="st0" d="M10.83,122.77c-11.78,0.99-12.28-6.63-9.28-14.7c6.21-16.67-8.21-41.62,4.31-69.78 c4.65-11.34,7.58-16.23,7.58-28.64C7.48,9.33,6.33,0.68,12.78,0.2c2.86-0.21,14.68-0.33,17.19,0c6.46,0.85,5.75,8.74-0.84,9.45 c0,12.41,3.18,17.3,7.82,28.64c12.4,27.9-1.64,52.61,4.14,69.32c2.8,8.1,4.6,16.3-9.11,15.16H10.83L10.83,122.77z M21.4,55.43 c3.91,0,7.07,3.17,7.07,7.08c0,3.91-3.17,7.08-7.07,7.08c-3.91,0-7.08-3.17-7.08-7.08C14.32,58.59,17.49,55.43,21.4,55.43 L21.4,55.43z M2.91,76.28c-0.78-8.68-1-17.99,1.25-27.54H38.9c2.25,9.55,2.03,18.87,1.25,27.54H2.91L2.91,76.28z"/></g></svg>