<svg width="22" height="22" viewBox="0 0 22 22" fill="none" xmlns="http://www.w3.org/2000/svg">
<g clip-path="url(#clip0_18_87)">
<path d="M11 0.538879C4.9346 0.538879 0 4.58049 0 9.54833C0 12.4757 1.70131 15.1771 4.57979 16.8682C4.18043 18.7352 3.28542 20.0453 3.27562 20.0595L2.29717 21.461L3.99423 21.2435C4.18972 21.2183 8.74264 20.6149 11.9877 18.5216C14.6527 18.3276 17.1277 17.35 18.9769 15.7571C20.9264 14.0777 22 11.8728 22 9.54843C22 4.58049 17.0654 0.538879 11 0.538879ZM11.6952 17.0221L11.4882 17.0339L11.316 17.1496C9.42892 18.4173 6.90262 19.1205 5.31335 19.4644C5.64674 18.7191 5.99711 17.7283 6.17199 16.5845L6.25372 16.0499L5.77474 15.7988C3.10771 14.4012 1.51542 12.0647 1.51542 9.54833C1.51542 5.4162 5.7702 2.0543 11 2.0543C16.2298 2.0543 20.4846 5.41609 20.4846 9.54833C20.4846 13.4563 16.6238 16.7391 11.6952 17.0221Z" fill="#FCF6F7"/>
</g>
<defs>
<clipPath id="clip0_18_87">
<rect width="22" height="22" fill="white"/>
</clipPath>
</defs>
</svg>
