<svg id="Layer_1" data-name="Layer 1" xmlns="http://www.w3.org/2000/svg" viewBox="0 0 63.84 122.88"><title>drink-bottle</title><path d="M21.93,117.68h20a5.88,5.88,0,0,0,4.2-1.75,7.33,7.33,0,0,0,2.06-4.67l1.14-16.91H45.76a2.73,2.73,0,0,1,0-5.46h3.91l.49-7.18h-4.4a2.74,2.74,0,0,1,0-5.47h4.76L51,69.07H45.76a2.74,2.74,0,0,1,0-5.47h5.62l.89-13.34H11.57l.89,13.34h6.05a2.74,2.74,0,0,1,0,5.47H12.83l.48,7.17h5.2a2.74,2.74,0,0,1,0,5.47H13.68l.48,7.18h4.35a2.73,2.73,0,0,1,0,5.46h-4l1.14,16.91a7.27,7.27,0,0,0,2.06,4.67,5.88,5.88,0,0,0,4.2,1.75ZM26.41,0h11A8.33,8.33,0,0,1,45.7,8.31V18.53a2.74,2.74,0,0,1,.39.45L56.2,32.34a9.07,9.07,0,0,1,5,2.54h0a9,9,0,0,1,0,12.71,9.06,9.06,0,0,1-3.7,2.24l-4.16,61.77a12.44,12.44,0,0,1-3.56,8,11,11,0,0,1-7.87,3.28h-20a11,11,0,0,1-7.88-3.28,12.48,12.48,0,0,1-3.55-8L6.34,49.84a9.06,9.06,0,0,1-3.7-2.24,9,9,0,0,1,0-12.71h0a9.08,9.08,0,0,1,4.94-2.53L17.78,18.87a2.66,2.66,0,0,1,.32-.35V8.31a8.27,8.27,0,0,1,2.44-5.87,1.29,1.29,0,0,1,.17-.16A8.28,8.28,0,0,1,26.41,0Zm11,5.2h-11a3.07,3.07,0,0,0-2.1.81l-.1.1a3.11,3.11,0,0,0-.92,2.2v9.53H40.51V8.31a3.11,3.11,0,0,0-.92-2.2,3.14,3.14,0,0,0-2.2-.91Zm12.23,27-7-9.21H21.14l-7,9.21Zm5.22,5.19H9a3.81,3.81,0,0,0-3.8,3.81A3.82,3.82,0,0,0,9,45.05H54.84a3.81,3.81,0,0,0,0-7.62Z"/></svg>