<svg id="Layer_1" data-name="Layer 1" xmlns="http://www.w3.org/2000/svg" viewBox="0 0 122.88 122.88"><defs><style>.cls-1{fill:#fff;}.cls-2{fill-rule:evenodd;}.cls-3{fill:#d92d27;}</style></defs><title>no-alcohol</title><path class="cls-1" d="M98.92,29.38,29.39,98.92a49.25,49.25,0,0,0,66.92-2.61,49.23,49.23,0,0,0,2.61-66.93ZM21.2,90,90,21.2A49.29,49.29,0,0,0,12.13,61.44h0A49.12,49.12,0,0,0,21.2,90Z"/><path class="cls-1" d="M21.2,32.93,90,101.68A49.29,49.29,0,0,1,12.13,61.44h0A49.12,49.12,0,0,1,21.2,32.93ZM98.92,93.5,29.39,24a49.25,49.25,0,0,1,66.92,2.61A49.23,49.23,0,0,1,98.92,93.5Z"/><path class="cls-2" d="M42.94,28.87h6.7a2.64,2.64,0,0,1,1.07,5.05V45.34c4,3.25,6.8,6.85,6.8,11.23.49,1.51.05,32,.05,36.5a.91.91,0,0,1-.91.91H35.74a.91.91,0,0,1-.91-.91V56.66c0-4.54,2.89-8.24,7.13-11.58V34a2.64,2.64,0,0,1,1-5.09ZM84.43,54c7.37,8.22,2.85,20.13-7.8,24.32V89.82h5.51a1.05,1.05,0,0,1,1.06,1.05V93A1.06,1.06,0,0,1,82.14,94H66.21A1.07,1.07,0,0,1,65.15,93V90.87a1.06,1.06,0,0,1,1.06-1.05h6V78.31C61.56,74.14,57,62.21,64.39,54Zm-2.9,4.18c4.82,5.38.4,14-7.08,16h-.08c-7.47-2-11.9-10.65-7.08-16Zm-39.76,2.6H55.39v25H41.77v-25Z"/><path class="cls-3" d="M61.44,122.88a61.31,61.31,0,1,1,23.49-4.66,61.29,61.29,0,0,1-23.49,4.66ZM21.2,90,90,21.2a49.44,49.44,0,0,0-47.38-5.34A49.53,49.53,0,0,0,15.86,42.58a49,49,0,0,0-3.73,18.86h0A48.93,48.93,0,0,0,21.2,90ZM98.92,29.38,29.38,98.92A49.32,49.32,0,0,0,98.92,29.38Z"/></svg>