<svg id="Layer_1" data-name="Layer 1" xmlns="http://www.w3.org/2000/svg" viewBox="0 0 47.35 122.88"><title>pet-bottle</title><path d="M33.8,14.52v5.84c.09,1.32,1.54,2.16,3.37,3.21,3.95,2.28,9.28,5.35,10.1,15.86a27.55,27.55,0,0,1,0,4,26.24,26.24,0,0,1-.58,3.89,1.39,1.39,0,0,1-.75.93,2.34,2.34,0,0,0-1.09,1.55,3.46,3.46,0,0,0-.07,1.2,3.12,3.12,0,0,0,.3,1.06,1.25,1.25,0,0,0,.74.68,1.36,1.36,0,0,1,1,1.32V86.08A1.36,1.36,0,0,1,46,87.35a2,2,0,0,0-.89.88,3.49,3.49,0,0,0-.36,1.63,4.5,4.5,0,0,0,.37,1.78,2.52,2.52,0,0,0,1,1.22,1.37,1.37,0,0,1,.73,1.21v21a1.39,1.39,0,0,1,0,.3,8.46,8.46,0,0,1-5.6,7,9,9,0,0,1-3.55.48,8.42,8.42,0,0,1-3.38-1,7.16,7.16,0,0,1-2.63-2.44,10.17,10.17,0,0,1-7.79,3.41,12.39,12.39,0,0,1-3.66-.48,10.12,10.12,0,0,1-3.24-1.6,7.86,7.86,0,0,1-1.35-1.29,7.12,7.12,0,0,1-2.6,2.4,8.42,8.42,0,0,1-3.39,1,9,9,0,0,1-3.54-.48,8.47,8.47,0,0,1-5.62-7.13V94.07a1.35,1.35,0,0,1,.79-1.24,2.63,2.63,0,0,0,1-1.19,4.51,4.51,0,0,0,.38-1.78,3.49,3.49,0,0,0-.37-1.63,1.89,1.89,0,0,0-.94-.91,1.35,1.35,0,0,1-.81-1.24V54a1.36,1.36,0,0,1,1.11-1.34A1.28,1.28,0,0,0,2.25,52,3.13,3.13,0,0,0,2.56,51a3.72,3.72,0,0,0-.07-1.2,2.35,2.35,0,0,0-1.14-1.58,1.37,1.37,0,0,1-.7-.9,25.37,25.37,0,0,1-.58-3.92,26.84,26.84,0,0,1,0-4C.93,28.9,6.24,25.84,10.18,23.57,12,22.5,13.5,21.66,13.55,20.3V14.52h0a2.19,2.19,0,0,1-2.2-2.2V4.59a4.59,4.59,0,0,1,1.25-3.14l.09-.1a4.76,4.76,0,0,1,1.49-1l.09,0A4.43,4.43,0,0,1,15.88,0H31.47a4.58,4.58,0,0,1,3.24,1.35l.09.09a4.82,4.82,0,0,1,.91,1.4,4.71,4.71,0,0,1,.35,1.75v7.73a2.2,2.2,0,0,1-.65,1.56,2.17,2.17,0,0,1-1.55.64ZM3.21,80.7H44.14V59.41H3.21V80.7Zm40.93,2.68H3.21v1.91A4.78,4.78,0,0,1,4.64,87a6.12,6.12,0,0,1,.67,2.9,7.21,7.21,0,0,1-.57,2.82H42.61A7.22,7.22,0,0,1,42,89.86,6.25,6.25,0,0,1,42.7,87a4.81,4.81,0,0,1,1.44-1.67V83.38ZM3.21,56.74H44.14V54.9a4.24,4.24,0,0,1-1.46-1.62,5.92,5.92,0,0,1-.6-2,6.45,6.45,0,0,1,.14-2.14,4.88,4.88,0,0,1,.26-.82H4.87a7.81,7.81,0,0,1,.26.82,6.19,6.19,0,0,1,.13,2.14,5.46,5.46,0,0,1-.6,2A4.1,4.1,0,0,1,3.21,54.9v1.84ZM5.58,30.86a10.13,10.13,0,0,1,2.16.66,7.07,7.07,0,0,0,5.65.17,13.77,13.77,0,0,1,9.73.09c2,.62,3.94,1.2,6.81.06a8.83,8.83,0,0,1,5.6-.11,14.28,14.28,0,0,0,3,.42A19.57,19.57,0,0,0,40.79,32h0c.51-.06,1-.12,1.55-.2a16,16,0,0,0-6.55-5.88c-2.57-1.48-4.61-2.66-4.73-5.46V14.52H16.27v5.81c-.07,2.91-2.12,4.09-4.74,5.6a17,17,0,0,0-5.95,4.93Zm38,3.53c-.79.12-1.61.24-2.42.32h0c-.91.09-1.79.15-2.55.15A17.16,17.16,0,0,1,35,34.4a6.64,6.64,0,0,0-4,0c-3.76,1.49-6.12.77-8.61,0a11.43,11.43,0,0,0-8.06-.11,9.45,9.45,0,0,1-7.52-.21,3.69,3.69,0,0,0-2.67-.34A20.18,20.18,0,0,0,2.8,39.56a24.18,24.18,0,0,0,0,3.61,23.48,23.48,0,0,0,.3,2.4H44.27c.13-.77.23-1.56.29-2.37a25,25,0,0,0,0-3.57,21.35,21.35,0,0,0-1-5.24Zm.61,61H3.21V115A5.8,5.8,0,0,0,7,119.81a6.11,6.11,0,0,0,2.46.33,5.48,5.48,0,0,0,2.27-.65A4.51,4.51,0,0,0,14,115.2v-.12a1.36,1.36,0,0,1,2.72-.06v.18a4.49,4.49,0,0,0,1.87,3.4A7.48,7.48,0,0,0,21,119.76a10,10,0,0,0,2.85.38,7.4,7.4,0,0,0,5.86-2.6,4.18,4.18,0,0,0,.65-1.19,4,4,0,0,0,.22-1.16V115a1.36,1.36,0,1,1,2.72.09,4.54,4.54,0,0,0,2.31,4.38,5.43,5.43,0,0,0,2.26.65,6.06,6.06,0,0,0,2.46-.33,5.8,5.8,0,0,0,3.8-4.82V95.41ZM14,11.79H33.33V4.59a1.78,1.78,0,0,0-.14-.7,1.89,1.89,0,0,0-.35-.56l-.06-.05a1.74,1.74,0,0,0-.6-.41,1.87,1.87,0,0,0-.71-.14H15.88a1.76,1.76,0,0,0-.66.12l-.05,0a1.77,1.77,0,0,0-.61.41l0,0a2,2,0,0,0-.39.59,1.92,1.92,0,0,0-.12.69v7.2Z"/></svg>