<svg id="Layer_1" data-name="Layer 1" xmlns="http://www.w3.org/2000/svg" viewBox="0 0 48.13 122.88"><title>plastic-bottle</title><path d="M34.56,15.27v5.34c.11.67,1.51,1.61,3.27,2.79,5.22,3.48,12.78,8.54,9.5,22.87a1.81,1.81,0,0,1-1,1.22,2.07,2.07,0,0,0-.8,1.35,4.74,4.74,0,0,0-.1,1.64,3.87,3.87,0,0,0,.37,1.37c.12.23.23.38.31.4A1.8,1.8,0,0,1,47.5,54h0V85.77a1.82,1.82,0,0,1-1.13,1.68,1.39,1.39,0,0,0-.56.61,4.35,4.35,0,0,0-.41,2,5.62,5.62,0,0,0,.45,2.23,1.85,1.85,0,0,0,.68.92,1.82,1.82,0,0,1,1,1.6h0v19.66a2.58,2.58,0,0,1,0,.39,8.84,8.84,0,0,1-5.85,7.29,9.16,9.16,0,0,1-3.69.49,8.57,8.57,0,0,1-3.55-1,7.66,7.66,0,0,1-2.33-2,9.54,9.54,0,0,1-4,2.52,12.88,12.88,0,0,1-8,0,9.41,9.41,0,0,1-3.94-2.5,7.63,7.63,0,0,1-2.31,1.92,8.57,8.57,0,0,1-3.54,1h0a9.28,9.28,0,0,1-3.64-.5h0a8.81,8.81,0,0,1-5.86-7.43,1.94,1.94,0,0,1,0-.24h0V94.85a1.81,1.81,0,0,1,1-1.63,2.1,2.1,0,0,0,.63-.89,5.62,5.62,0,0,0,.45-2.23,4.48,4.48,0,0,0-.41-2,1.41,1.41,0,0,0-.61-.64A1.78,1.78,0,0,1,.62,85.77V54A1.8,1.8,0,0,1,2,52.24a1.19,1.19,0,0,0,.27-.39,4.09,4.09,0,0,0,.38-1.37,5.28,5.28,0,0,0-.1-1.64,2.08,2.08,0,0,0-.86-1.38,1.85,1.85,0,0,1-.92-1.2h0c-3.28-14.33,4.28-19.39,9.5-22.88,1.79-1.2,3.21-2.15,3.27-2.81h0V15.27a2.65,2.65,0,0,1-1.47-.74c0-.06-.11-.12-.15-.18a2.6,2.6,0,0,1-.62-1.69V5a4.85,4.85,0,0,1,.37-1.85,4.77,4.77,0,0,1,1-1.56l.11-.12A5,5,0,0,1,16.33,0H31.79A5.08,5.08,0,0,1,33.7.38a4.92,4.92,0,0,1,1.62,1.09l.12.13A5,5,0,0,1,36.79,5v7.66A2.62,2.62,0,0,1,36,14.52h0a2.63,2.63,0,0,1-1.45.74ZM4.23,80H43.9V59.79H4.23V80ZM43.9,83.54H4.23v1.25a5.28,5.28,0,0,1,1.26,1.59,8.14,8.14,0,0,1,.83,3.73,9.63,9.63,0,0,1-.75,3.68,6.09,6.09,0,0,1-1.34,1.95V114.4a5.32,5.32,0,0,0,3.47,4.39,5.58,5.58,0,0,0,2.22.3h0A5,5,0,0,0,12,118.5a4.06,4.06,0,0,0,2.05-3.93v0a1.8,1.8,0,0,1,3.6-.09v.21a4.68,4.68,0,0,0,3.49,4.18,8.83,8.83,0,0,0,2.86.45,8.94,8.94,0,0,0,2.87-.46c1.95-.67,3.48-2.07,3.58-4.18v-.2a1.8,1.8,0,1,1,3.59.13,4.07,4.07,0,0,0,2.06,3.93,4.92,4.92,0,0,0,2.05.59,5.86,5.86,0,0,0,2.27-.3,5.34,5.34,0,0,0,3.46-4.39V95.74a5.94,5.94,0,0,1-1.34-1.95,9.45,9.45,0,0,1-.75-3.68,8,8,0,0,1,.82-3.73,5.47,5.47,0,0,1,1.27-1.59V83.54ZM4.23,56.25H43.9V55.07a4.64,4.64,0,0,1-1.26-1.56,7.46,7.46,0,0,1-.77-2.67A8.57,8.57,0,0,1,42.05,48,5.89,5.89,0,0,1,44,44.78c2.34-11.4-3.84-15.53-8.13-18.39-2.62-1.76-4.7-3.15-4.87-5.57a1.93,1.93,0,0,1,0-.24V15.3H17.18v5.28h0v0c-.05,2.55-2.18,4-4.87,5.77-4.29,2.87-10.47,7-8.14,18.4A5.74,5.74,0,0,1,6.07,48a8.58,8.58,0,0,1,.19,2.85,7.4,7.4,0,0,1-.77,2.67,4.76,4.76,0,0,1-1.26,1.56v1.18ZM14.94,11.69H33.18V5a1.27,1.27,0,0,0-.1-.52,1.28,1.28,0,0,0-.25-.4L32.77,4a1.31,1.31,0,0,0-1-.41H16.33a1.31,1.31,0,0,0-1,.41l0,0a1.2,1.2,0,0,0-.29.45,1.36,1.36,0,0,0-.1.51v6.69Z"/></svg>