<svg width="29" height="61" viewBox="0 0 29 61" fill="none" xmlns="http://www.w3.org/2000/svg">
<path d="M12.2692 1L3.34616 10.1259H8.55129V17.7308H15.9872V10.1259H21.1923L12.2692 1Z" fill="#E68B91" stroke="#E68B91"/>
<path d="M12.2692 60.1154L21.1923 50.9895H15.9872L15.9872 43.3846H8.55128V50.9895H3.34615L12.2692 60.1154Z" stroke="#E68B91"/>
<path d="M2.08408 25.4461V23.6401H5.45808V33.8461H3.44208V25.4461H2.08408ZM8.48634 33.9441C8.13168 33.9441 7.83768 33.8368 7.60434 33.6221C7.38034 33.3981 7.26834 33.1228 7.26834 32.7961C7.26834 32.4695 7.38034 32.1988 7.60434 31.9841C7.83768 31.7601 8.13168 31.6481 8.48634 31.6481C8.83168 31.6481 9.11634 31.7601 9.34034 31.9841C9.56434 32.1988 9.67634 32.4695 9.67634 32.7961C9.67634 33.1228 9.56434 33.3981 9.34034 33.6221C9.11634 33.8368 8.83168 33.9441 8.48634 33.9441ZM16.3231 26.1881C16.2297 25.7961 16.0664 25.5021 15.8331 25.3061C15.6091 25.1101 15.2824 25.0121 14.8531 25.0121C14.2091 25.0121 13.7331 25.2735 13.4251 25.7961C13.1264 26.3095 12.9724 27.1495 12.9631 28.3161C13.1871 27.9428 13.5137 27.6535 13.9431 27.4481C14.3724 27.2335 14.8391 27.1261 15.3431 27.1261C15.9497 27.1261 16.4864 27.2568 16.9531 27.5181C17.4197 27.7795 17.7837 28.1621 18.0451 28.6661C18.3064 29.1608 18.4371 29.7581 18.4371 30.4581C18.4371 31.1208 18.3017 31.7135 18.0311 32.2361C17.7697 32.7495 17.3824 33.1508 16.8691 33.4401C16.3557 33.7295 15.7444 33.8741 15.0351 33.8741C14.0644 33.8741 13.2991 33.6595 12.7391 33.2301C12.1884 32.8008 11.8011 32.2035 11.5771 31.4381C11.3624 30.6635 11.2551 29.7115 11.2551 28.5821C11.2551 26.8741 11.5491 25.5861 12.1371 24.7181C12.7251 23.8408 13.6537 23.4021 14.9231 23.4021C15.9031 23.4021 16.6637 23.6681 17.2051 24.2001C17.7464 24.7321 18.0591 25.3948 18.1431 26.1881H16.3231ZM14.8951 28.7361C14.4004 28.7361 13.9851 28.8808 13.6491 29.1701C13.3131 29.4595 13.1451 29.8795 13.1451 30.4301C13.1451 30.9808 13.2991 31.4148 13.6071 31.7321C13.9244 32.0495 14.3677 32.2081 14.9371 32.2081C15.4411 32.2081 15.8377 32.0541 16.1271 31.7461C16.4257 31.4381 16.5751 31.0228 16.5751 30.5001C16.5751 29.9588 16.4304 29.5295 16.1411 29.2121C15.8611 28.8948 15.4457 28.7361 14.8951 28.7361ZM24.8021 33.8461L22.1701 30.5421V33.8461H20.2101V23.4861H22.1701V29.3801L24.7741 26.0901H27.3221L23.9061 29.9821L27.3501 33.8461H24.8021Z" fill="black"/>
</svg>
